<?xml version="1.0" encoding="UTF-8"?>
<svg id="Layer_1" data-name="Layer 1" xmlns="http://www.w3.org/2000/svg" viewBox="0 0 490.52 138.77">
  <defs>
    <style>
      .cls-1 {
        fill: #8dc63f;
      }

      .cls-1, .cls-2 {
        stroke-width: 0px;
      }

      .cls-2 {
        fill: #a7a9ac;
      }
    </style>
  </defs>
  <path class="cls-2" d="M256.26,116.2l10.27-18.53h6.85l-12.89,22.76,16.22,17.02h-8.96l-10.68-11.48c-2.89,3.9-6.06,7-9.52,9.32-3.46,2.32-7.67,3.47-12.64,3.47-3.02,0-5.86-.49-8.51-1.46-2.65-.97-4.95-2.37-6.9-4.18-1.95-1.81-3.49-3.99-4.63-6.55-1.14-2.55-1.71-5.4-1.71-8.56,0-2.75.47-5.17,1.41-7.25.94-2.08,2.17-3.93,3.68-5.54,1.51-1.61,3.24-3.07,5.19-4.38,1.95-1.31,3.96-2.6,6.04-3.88-1.01-1.21-2.03-2.47-3.07-3.78-1.04-1.31-1.96-2.67-2.77-4.08-.81-1.41-1.48-2.87-2.01-4.38-.54-1.51-.81-3.07-.81-4.68,0-2.55.49-4.83,1.46-6.85.97-2.01,2.28-3.71,3.93-5.09,1.65-1.38,3.56-2.43,5.74-3.17,2.18-.74,4.45-1.11,6.8-1.11,2.08,0,4.1.37,6.04,1.11,1.95.74,3.68,1.76,5.19,3.07,1.51,1.31,2.7,2.89,3.58,4.73.87,1.85,1.31,3.91,1.31,6.19,0,2.55-.45,4.77-1.36,6.65-.91,1.88-2.11,3.56-3.63,5.04-1.51,1.48-3.21,2.79-5.09,3.93-1.88,1.14-3.83,2.25-5.84,3.32l17.32,18.33ZM233.3,101.2c-1.61.94-3.21,1.95-4.78,3.02-1.58,1.07-3.02,2.27-4.33,3.58-1.31,1.31-2.37,2.79-3.17,4.43-.81,1.65-1.21,3.51-1.21,5.59,0,2.28.42,4.33,1.26,6.14.84,1.81,1.98,3.37,3.42,4.68,1.44,1.31,3.16,2.32,5.14,3.02,1.98.71,4.08,1.06,6.3,1.06,1.88,0,3.64-.3,5.29-.91,1.65-.6,3.17-1.41,4.58-2.42,1.41-1.01,2.72-2.17,3.93-3.47,1.21-1.31,2.32-2.7,3.32-4.18l-19.74-20.55ZM238.23,69.87c-3.02,0-5.57.92-7.66,2.77-2.08,1.85-3.12,4.28-3.12,7.3,0,1.21.25,2.45.75,3.73.5,1.28,1.14,2.52,1.91,3.73.77,1.21,1.61,2.35,2.52,3.42.91,1.08,1.73,2.05,2.47,2.92,1.41-.74,2.89-1.54,4.43-2.42,1.54-.87,2.95-1.88,4.23-3.02,1.28-1.14,2.33-2.43,3.17-3.88.84-1.44,1.26-3.1,1.26-4.99,0-2.82-.94-5.12-2.82-6.9-1.88-1.78-4.27-2.67-7.15-2.67Z"/>
  <path class="cls-2" d="M394.94,119.8c0,1.12.04,2.48.13,4.07.09,1.6.15,3.21.19,4.85.04,1.64.11,3.17.19,4.59.09,1.42.13,2.52.13,3.3h-7.76c-.09-2.24-.15-4.4-.19-6.47-.04-2.07-.15-3.41-.32-4.01h-.39c-1.55,3.28-4.14,6.1-7.76,8.47-3.62,2.37-7.85,3.56-12.67,3.56s-8.47-.73-11.45-2.2c-2.97-1.47-5.3-3.38-6.98-5.76-1.68-2.37-2.82-5.11-3.43-8.21-.6-3.1-.9-6.29-.9-9.57v-35.57h7.76v35.18c0,2.42.21,4.77.65,7.05.43,2.29,1.18,4.33,2.26,6.14,1.08,1.81,2.59,3.26,4.53,4.33,1.94,1.08,4.46,1.62,7.57,1.62,2.85,0,5.54-.49,8.08-1.49,2.54-.99,4.74-2.5,6.6-4.53,1.85-2.02,3.32-4.57,4.4-7.63,1.08-3.06,1.62-6.66,1.62-10.8v-29.88h7.76v42.94Z"/>
  <path class="cls-2" d="M410.16,93.67c0-1.12-.05-2.48-.13-4.07-.09-1.59-.15-3.21-.19-4.85-.04-1.64-.11-3.17-.19-4.59-.09-1.42-.13-2.52-.13-3.3h7.76c.09,2.24.15,4.4.19,6.47.04,2.07.15,3.41.32,4.01,1.98-3.53,4.53-6.42,7.63-8.67,3.1-2.24,6.9-3.36,11.38-3.36.78,0,1.53.06,2.26.19.73.13,1.49.28,2.26.45l-.9,7.63c-1.03-.34-2.03-.52-2.97-.52-3.36,0-6.27.54-8.73,1.62-2.46,1.08-4.48,2.57-6.08,4.46-1.6,1.9-2.78,4.12-3.56,6.66-.78,2.55-1.16,5.28-1.16,8.21v32.59h-7.76v-42.94Z"/>
  <path class="cls-2" d="M463.74,83.84h-12.42v-6.98h12.42v-19.53c0-3.88.58-7.09,1.75-9.64,1.16-2.54,2.61-4.59,4.33-6.14,1.72-1.55,3.64-2.65,5.76-3.3,2.11-.65,4.12-.97,6.01-.97,3.62,0,6.6.52,8.92,1.55l-1.55,6.73c-1.73-.86-4.05-1.29-6.98-1.29-6.98,0-10.48,5.3-10.48,15.91v16.68h13.97v6.98h-13.97v52.77h-7.76v-52.77Z"/>
  <path class="cls-2" d="M344.37.3c-14.48,0-26.26,11.78-26.26,26.25h7.76c0-10.2,8.29-18.49,18.49-18.49s18.49,8.3,18.49,18.49-8.29,18.49-18.49,18.49h0s-71.14,0-71.14,0v7.76h31.3v83.81h8.54V52.8h31.3c14.48,0,26.26-11.77,26.26-26.25S358.84.3,344.37.3Z"/>
  <path class="cls-2" d="M94.53,42.67v12.34h-24.33v-12.34h24.33ZM94.53,59.75v77.61h-24.33V59.75h24.33Z"/>
  <path class="cls-2" d="M127.35,42.67v94.69h-24.33V42.67h24.33Z"/>
  <path class="cls-2" d="M189.34,99.93h-30.59v16.79c0,3.51.25,5.77.76,6.78s1.48,1.52,2.92,1.52c1.79,0,2.99-.67,3.6-2.02s.91-3.95.91-7.81v-10.24h22.4v5.73c0,4.8-.3,8.48-.91,11.05s-2.02,5.32-4.24,8.25c-2.22,2.92-5.04,5.12-8.45,6.58-3.41,1.46-7.69,2.19-12.84,2.19s-9.4-.72-13.22-2.16c-3.82-1.44-6.79-3.42-8.92-5.94-2.13-2.51-3.6-5.28-4.42-8.31s-1.23-7.42-1.23-13.19v-22.63c0-6.78.92-12.14,2.75-16.05s4.83-6.92,9.01-9.01c4.17-2.09,8.97-3.13,14.39-3.13,6.63,0,12.1,1.26,16.41,3.77s7.33,5.85,9.07,10,2.6,9.99,2.6,17.52v10.29ZM165.65,87.3v-5.67c0-4.02-.21-6.61-.64-7.78s-1.31-1.75-2.63-1.75c-1.64,0-2.65.5-3.04,1.49s-.58,3.67-.58,8.04v5.67h6.9Z"/>
  <path class="cls-1" d="M273.23,45.04h71.15c10.2,0,18.5-8.29,18.5-18.49s-8.3-18.5-18.5-18.5-18.5,8.3-18.5,18.5h6.86c0-6.4,5.2-11.6,11.6-11.6s11.6,5.2,11.6,11.6-5.2,11.6-11.6,11.6h0s-44.62,0-44.62,0h-5.33l-21.17,6.9Z"/>
  <g>
    <polygon class="cls-2" points="21.03 119.26 38.51 136.74 56.59 136.74 56.59 131.34 21.03 95.79 21.03 119.26"/>
    <polygon class="cls-2" points="21.03 91.55 56.59 127.1 56.59 103.63 21.03 68.08 21.03 91.55"/>
    <polygon class="cls-2" points="0 27.36 8.03 27.36 0 19.33 0 27.36"/>
    <polygon class="cls-2" points="21.03 36.12 30.76 45.86 76.62 0 53.15 0 21.03 32.12 21.03 36.12"/>
    <polygon class="cls-2" points="32.89 47.98 44.62 59.71 56.59 47.75 56.59 27.36 76.97 27.36 77.7 26.63 77.7 3.16 32.89 47.98"/>
    <polygon class="cls-2" points="21.03 136.74 34.27 136.74 21.03 123.5 21.03 136.74"/>
    <polygon class="cls-2" points="21.03 63.83 56.59 99.39 56.59 75.92 21.03 40.36 21.03 63.83"/>
    <polygon class="cls-2" points="4.59 16.61 21.2 0 0 0 0 15.09 3.05 18.14 4.59 16.61 4.59 16.61"/>
    <polygon class="cls-2" points="21.03 27.88 48.91 0 25.44 0 6.71 18.73 6.71 18.73 5.34 20.11 5.17 20.27 12.27 27.36 21.03 27.36 21.03 27.88"/>
    <polygon class="cls-2" points="56.59 71.68 56.59 51.99 46.74 61.83 56.59 71.68"/>
  </g>
</svg>